<svg xmlns="http://www.w3.org/2000/svg">
	<symbol id="arrow" viewBox="0 0 24 24" fill="none"><path fill-rule="evenodd" clip-rule="evenodd" d="M8.646 5.646a.5.5 0 0 1 .708 0l6 6a.5.5 0 0 1 0 .708l-6 6a.5.5 0 0 1-.708-.708L14.293 12 8.646 6.354a.5.5 0 0 1 0-.708Z" fill="#414141"/></symbol>
	<symbol id="close" viewBox="0 0 24 24" fill="none"><path fill-rule="evenodd" clip-rule="evenodd" d="M18.354 5.646a.5.5 0 0 1 0 .708l-12 12a.5.5 0 0 1-.708-.708l12-12a.5.5 0 0 1 .708 0Z" fill="currentColor"/><path fill-rule="evenodd" clip-rule="evenodd" d="M5.646 5.646a.5.5 0 0 1 .708 0l12 12a.5.5 0 0 1-.708.708l-12-12a.5.5 0 0 1 0-.708Z" fill="currentColor"/></symbol>
	<symbol id="eye-off" viewBox="0 0 25 24" fill="none"><path fill-rule="evenodd" clip-rule="evenodd" d="M12.497 4.5a8.62 8.62 0 0 0-1.985.227.5.5 0 1 1-.228-.974A9.62 9.62 0 0 1 12.5 3.5c3.7 0 6.572 2.113 8.49 4.158a20.174 20.174 0 0 1 2.76 3.753 12.337 12.337 0 0 1 .182.338l.01.02.003.005.001.001-.447.225-.44-.236a16.92 16.92 0 0 1-.127.234l-.054-.097a19.178 19.178 0 0 0-2.618-3.56c-1.833-1.954-4.46-3.841-7.76-3.841h-.002Zm10.434 7.498a18.005 18.005 0 0 1-1.975 2.87.5.5 0 1 0 .765.644 18.993 18.993 0 0 0 2.218-3.276.5.5 0 0 0 .007-.46l-.448.224-.447.224-.002-.004-.007-.014a7.317 7.317 0 0 0-.111-.208ZM6.957 5.757a.5.5 0 0 1-.094.7 17.95 17.95 0 0 0-4.795 5.546l.053.096a19.18 19.18 0 0 0 2.618 3.56c1.833 1.953 4.459 3.84 7.757 3.841a9.57 9.57 0 0 0 5.64-1.958.5.5 0 0 1 .607.796 10.57 10.57 0 0 1-6.235 2.162H12.5c-3.7 0-6.573-2.113-8.49-4.158a20.176 20.176 0 0 1-2.76-3.753 11.762 11.762 0 0 1-.183-.337l-.01-.02-.003-.006v-.001s-.001-.001.446-.225l-.447.224a.5.5 0 0 1 .006-.46 18.95 18.95 0 0 1 5.198-6.101.5.5 0 0 1 .7.094Zm3.789 3.782a.5.5 0 0 1-.025.707 2.5 2.5 0 1 0 3.533 3.533.5.5 0 1 1 .732.682 3.5 3.5 0 1 1-4.947-4.947.5.5 0 0 1 .707.025Z" fill="currentColor"/><path fill-rule="evenodd" clip-rule="evenodd" d="M1.146.646a.5.5 0 0 1 .708 0l22 22a.5.5 0 0 1-.708.708l-22-22a.5.5 0 0 1 0-.708Z" fill="currentColor"/></symbol>
	<symbol id="eye" viewBox="0 0 24 24" fill="none"><path fill-rule="evenodd" clip-rule="evenodd" d="m1.566 12 .055.099a19.169 19.169 0 0 0 2.618 3.56C6.074 17.612 8.7 19.499 12 19.499c3.3 0 5.927-1.887 7.76-3.842A19.165 19.165 0 0 0 22.434 12l-.055-.099a19.166 19.166 0 0 0-2.618-3.56C17.926 6.388 15.3 4.501 12 4.501c-3.3 0-5.927 1.887-7.76 3.842A19.17 19.17 0 0 0 1.566 12ZM23 12l.447-.224-.001-.002-.003-.006-.01-.02-.038-.072a17.99 17.99 0 0 0-.71-1.198 20.177 20.177 0 0 0-2.195-2.82C18.573 5.613 15.7 3.5 12 3.5S5.427 5.613 3.51 7.658a20.178 20.178 0 0 0-2.76 3.753 11.76 11.76 0 0 0-.183.337l-.01.02-.003.006v.001S.552 11.776 1 12l-.447-.224a.5.5 0 0 0 0 .448L1 12l-.447.224.001.002.003.006.01.02a7.677 7.677 0 0 0 .183.337 20.182 20.182 0 0 0 2.76 3.753C5.427 18.387 8.3 20.5 12 20.5s6.573-2.113 8.49-4.158a20.181 20.181 0 0 0 2.76-3.753c.064-.113.112-.203.145-.265l.038-.072.01-.02.003-.006v-.001s.001-.001-.446-.225Zm0 0 .447.224a.5.5 0 0 0 0-.448L23 12Z" fill="currentColor"/><path fill-rule="evenodd" clip-rule="evenodd" d="M8.5 12a3.5 3.5 0 1 1 7 0 3.5 3.5 0 0 1-7 0ZM12 9.5a2.5 2.5 0 1 0 0 5 2.5 2.5 0 0 0 0-5Z" fill="currentColor"/></symbol>
	<symbol id="check" viewBox="0 0 24 24" fill="none"><path fill-rule="evenodd" clip-rule="evenodd" d="M20.354 6.646a.5.5 0 0 1 0 .708l-11 11a.5.5 0 0 1-.708 0l-5-5a.5.5 0 0 1 .708-.708L9 17.293 19.646 6.646a.5.5 0 0 1 .708 0Z" fill="currentColor"/></symbol>
</svg>
